<?xml version="1.0" standalone="no"?>
<!DOCTYPE svg PUBLIC "-//W3C//DTD SVG 20010904//EN"
 "http://www.w3.org/TR/2001/REC-SVG-20010904/DTD/svg10.dtd">
<svg version="1.0" xmlns="http://www.w3.org/2000/svg"
 width="260.000000pt" height="260.000000pt" viewBox="0 0 260.000000 260.000000"
 preserveAspectRatio="xMidYMid meet">
<metadata>
Created by potrace 1.14, written by Peter Selinger 2001-2017
</metadata>
<g transform="translate(0.000000,260.000000) scale(0.100000,-0.100000)"
fill="#000000" stroke="none">
<path d="M0 1300 l0 -1300 1300 0 1300 0 0 1300 0 1300 -1300 0 -1300 0 0
-1300z m1555 857 c106 -31 202 -83 259 -140 96 -96 136 -205 136 -373 0 -112
-19 -191 -63 -267 -34 -58 -140 -155 -204 -188 l-52 -26 195 -362 c107 -199
198 -369 201 -377 4 -12 -21 -14 -165 -14 l-170 0 -175 338 -175 337 -171 3
-171 2 0 -340 0 -340 -155 0 -155 0 0 886 0 885 403 -3 c344 -4 411 -7 462
-21z"/>
<path d="M1000 1635 l0 -297 208 4 c203 4 208 4 270 33 108 49 162 135 162
259 0 129 -45 207 -146 257 l-69 34 -212 3 -213 4 0 -297z"/>
</g>
</svg>
